HIERARCHY
ROOT Hips
{
    OFFSET 0.000000 0.000000 0.000000
    CHANNELS 6 Xposition Yposition Zposition Zrotation Xrotation Yrotation
    JOINT Spine
    {
        OFFSET -0.000000 7.236184 0.000000
        CHANNELS 3 Zrotation Xrotation Yrotation
        JOINT Spine1
        {
            OFFSET -0.000000 20.420147 0.000000
            CHANNELS 3 Zrotation Xrotation Yrotation
            JOINT Neck
            {
                OFFSET -0.000000 20.336288 1.848754
                CHANNELS 3 Zrotation Xrotation Yrotation
                JOINT Head
                {
                    OFFSET -0.000000 12.354461 -1.764923
                    CHANNELS 3 Zrotation Xrotation Yrotation
                    End Site
                    {
                        OFFSET -0.000000 22.061537 0.000000
                    }
                }
            }
            JOINT LeftShoulder
            {
                OFFSET 3.573296 18.396038 -0.314103
                CHANNELS 3 Zrotation Xrotation Yrotation
                JOINT LeftArm
                {
                    OFFSET 10.880760 0.000000 0.000000
                    CHANNELS 3 Zrotation Xrotation Yrotation
                    JOINT LeftForeArm
                    {
                        OFFSET 27.185530 0.000000 0.000000
                        CHANNELS 3 Zrotation Xrotation Yrotation
                        JOINT LeftHand
                        {
                            OFFSET 27.825975 0.000000 0.000000
                            CHANNELS 3 Zrotation Xrotation Yrotation
                            End Site
                            {
                                OFFSET 13.236923 0.000000 0.000000
                            }
                        }
                    }
                }
            }
            JOINT RightShoulder
            {
                OFFSET -3.474926 18.396038 -0.314103
                CHANNELS 3 Zrotation Xrotation Yrotation
                JOINT RightArm
                {
                    OFFSET -10.880760 0.000000 0.000000
                    CHANNELS 3 Zrotation Xrotation Yrotation
                    JOINT RightForeArm
                    {
                        OFFSET -27.185530 0.000000 0.000000
                        CHANNELS 3 Zrotation Xrotation Yrotation
                        JOINT RightHand
                        {
                            OFFSET -27.825975 0.000000 0.000000
                            CHANNELS 3 Zrotation Xrotation Yrotation
                            End Site
                            {
                                OFFSET -13.236923 0.000000 0.000000
                            }
                        }
                    }
                }
            }
        }
    }
    JOINT LeftUpLeg
    {
        OFFSET 8.824615 0.000000 0.000000
        CHANNELS 3 Zrotation Xrotation Yrotation
        JOINT LeftLeg
        {
            OFFSET -0.000000 -35.111282 0.000000
            CHANNELS 3 Zrotation Xrotation Yrotation
            JOINT LeftFoot
            {
                OFFSET -0.000000 -42.324711 0.000000
                CHANNELS 3 Zrotation Xrotation Yrotation
                JOINT LeftToeBase
                {
                    OFFSET -0.000000 -5.735999 13.236923
                    CHANNELS 3 Zrotation Xrotation Yrotation
                    End Site
                    {
                        OFFSET -0.000000 0.000000 3.529846
                    }
                }
            }
        }
    }
    JOINT RightUpLeg
    {
        OFFSET -8.824615 0.000000 0.000000
        CHANNELS 3 Zrotation Xrotation Yrotation
        JOINT RightLeg
        {
            OFFSET -0.000000 -35.111282 0.000000
            CHANNELS 3 Zrotation Xrotation Yrotation
            JOINT RightFoot
            {
                OFFSET -0.000000 -42.324711 0.000000
                CHANNELS 3 Zrotation Xrotation Yrotation
                JOINT RightToeBase
                {
                    OFFSET -0.000000 -5.735999 13.236923
                    CHANNELS 3 Zrotation Xrotation Yrotation
                    End Site
                    {
                        OFFSET -0.000000 0.000000 3.529846
                    }
                }
            }
        }
    }
}
MOTION
Frames:    7
Frame Time:    0.008333
-5.802079    82.012993    100.720612    -0.940679    -8.519467    -178.697128    -1.498443    -13.169692    0.283509    -0.155781    3.881740    0.461787    3.878165    -4.465054    -0.116875    -1.745223    -17.695118    -1.360794    0.966362    18.363447    -1.304163    -60.019341    39.034470    -27.137890    1.633849    -8.882967    -4.887741    38.172901    -3.850951    14.351558    5.875484    18.845522    -5.201145    51.024166    43.132607    28.382454    -1.282844    -10.028677    16.826084    -15.565590    -9.175094    -4.942163    1.526155    -7.796325    -1.601071    -1.233373    10.537350    -3.746279    -0.703998    -9.624076    -5.200782    -0.129389    0.022487    0.143417    -3.650315    -4.679158    4.039982    3.559394    5.228829    5.414694    -1.714557    -6.603047    -13.250605    0.110187    0.457356    -0.119102
-5.805277    82.033188    100.744438    -0.922099    -8.787148    -178.797592    -1.432293    -13.056359    0.327171    -0.181271    3.770095    0.497052    3.855130    -4.643123    -0.058512    -1.973458    -19.200354    -1.393324    0.997599    18.379026    -1.318598    -60.363918    38.548340    -26.615877    1.759142    -8.864482    -4.569155    39.007687    -3.627624    14.591269    5.843884    18.830618    -5.171128    51.042454    43.104610    28.339609    -1.278993    -10.039934    16.807631    -15.516608    -9.192281    -4.919695    1.556162    -8.017567    -1.586154    -1.255612    10.439254    -3.673885    -0.699006    -9.582032    -5.193576    -0.145408    0.078732    0.161157    -3.658918    -4.878365    4.151329    3.591366    5.033538    5.417694    -1.709600    -6.501510    -13.269764    0.104920    0.475259    -0.113406
-5.807884    82.053352    100.769638    -0.903749    -9.053589    -178.902023    -1.370083    -12.940151    0.373031    -0.200574    3.663677    0.534916    3.825240    -4.802653    -0.005072    -2.195574    -20.674683    -1.432217    1.032939    18.394089    -1.329868    -60.696903    38.038376    -26.091795    1.870476    -8.838839    -4.283062    39.751637    -3.425122    14.779966    5.810247    18.814373    -5.142579    51.052425    43.069195    28.304327    -1.280897    -10.048381    16.798285    -15.475574    -9.206248    -4.890787    1.588224    -8.236682    -1.575094    -1.279430    10.339029    -3.593084    -0.695557    -9.540575    -5.190018    -0.165784    0.140150    0.183719    -3.663369    -5.080136    4.253428    3.616980    4.842061    5.420817    -1.699949    -6.399041    -13.275390    0.099485    0.492942    -0.107529
-5.810093    82.073143    100.795784    -0.886944    -9.316259    -179.009048    -1.313819    -12.819986    0.420427    -0.213395    3.563311    0.574720    3.789849    -4.942202    0.043272    -2.411413    -22.107597    -1.477234    1.071946    18.408560    -1.336652    -61.022293    37.498375    -25.569101    1.970099    -8.805660    -4.021499    40.415848    -3.240852    14.923761    5.774732    18.795792    -5.116125    51.056229    43.024853    28.274858    -1.288823    -10.054486    16.799904    -15.444315    -9.217065    -4.856925    1.620587    -8.451263    -1.568092    -1.304208    10.237291    -3.505233    -0.693787    -9.499740    -5.189892    -0.190138    0.205131    0.210683    -3.663290    -5.282362    4.339963    3.632842    4.656031    5.419182    -1.683342    -6.296498    -13.257494    0.093877    0.510278    -0.101466
-5.811996    82.092461    100.822853    -0.872001    -9.575022    -179.117996    -1.263600    -12.694963    0.468926    -0.221133    3.468539    0.616203    3.751635    -5.059652    0.086905    -2.622558    -23.497610    -1.528439    1.115450    18.424282    -1.337567    -61.337223    36.932758    -25.053099    2.062179    -8.771032    -3.778895    41.016285    -3.074728    15.035953    5.738475    18.774555    -5.091964    51.054790    42.970535    28.249908    -1.303108    -10.059518    16.814302    -15.423203    -9.225591    -4.820950    1.652675    -8.661368    -1.564514    -1.329591    10.133894    -3.411391    -0.693404    -9.458424    -5.192619    -0.217494    0.273199    0.240966    -3.658986    -5.485111    4.410832    3.638962    4.476135    5.411900    -1.660402    -6.194120    -13.216002    0.088094    0.527612    -0.095213
-5.813612    82.111221    100.850700    -0.858897    -9.827956    -179.227173    -1.219427    -12.565530    0.517662    -0.225029    3.379078    0.658547    3.713981    -5.151063    0.126220    -2.829927    -24.832382    -1.585833    1.162464    18.441986    -1.332077    -61.638344    36.348259    -24.550522    2.149934    -8.739359    -3.551454    41.564224    -2.926628    15.125979    5.702912    18.750727    -5.070564    51.049000    42.905663    28.228781    -1.323666    -10.064673    16.842924    -15.411466    -9.232371    -4.787521    1.684182    -8.865539    -1.563353    -1.354956    10.029424    -3.312310    -0.694027    -9.415652    -5.198633    -0.245785    0.342915    0.272276    -3.651046    -5.687374    4.468400    3.636962    4.304753    5.398814    -1.632418    -6.093218    -13.155025    0.082154    0.544971    -0.088791
-5.814987    82.129471    100.879478    -0.847430    -10.075395    -179.335632    -1.180801    -12.431252    0.566111    -0.226298    3.293254    0.701274    3.679163    -5.214757    0.161384    -3.034941    -26.108795    -1.649351    1.211824    18.462002    -1.320495    -61.925388    35.747757    -24.062529    2.237164    -8.714165    -3.334443    42.074551    -2.795214    15.201856    5.669647    18.724510    -5.052412    51.039272    42.829952    28.210606    -1.350619    -10.071363    16.886982    -15.407692    -9.238230    -4.761750    1.714838    -9.064355    -1.563247    -1.379521    9.923689    -3.208916    -0.695055    -9.370192    -5.207852    -0.272518    0.413171    0.301853    -3.640159    -5.890110    4.516122    3.628830    4.143133    5.380160    -1.601483    -5.994299    -13.079547    0.076044    0.562107    -0.082185
